<?xml version="1.0" encoding="UTF-8" standalone="no"?>
<svg
   xmlns:dc="http://purl.org/dc/elements/1.1/"
   xmlns:cc="http://creativecommons.org/ns#"
   xmlns:rdf="http://www.w3.org/1999/02/22-rdf-syntax-ns#"
   xmlns:svg="http://www.w3.org/2000/svg"
   xmlns="http://www.w3.org/2000/svg"
   id="svg8"
   version="1.1"
   viewBox="0 0 558.8 215.9"
   height="8.5in"
   width="22in">
  <defs
     id="defs2" />
  <metadata
     id="metadata5">
    <rdf:RDF>
      <cc:Work
         rdf:about="">
        <dc:format>image/svg+xml</dc:format>
        <dc:type
           rdf:resource="http://purl.org/dc/dcmitype/StillImage" />
        <dc:title></dc:title>
      </cc:Work>
    </rdf:RDF>
  </metadata>
  <g
     style="opacity:1"
     transform="translate(0,-81.1)"
     id="layer1">
    <path
       id="path4548"
       d="m 112.98627,228.8566 c -0.22845,-0.0994 -0.37883,-0.36414 -0.37883,-0.66704 0,-0.17081 0.0441,-0.26325 0.19498,-0.40794 l 0.19498,-0.18704 -0.14231,-0.14012 c -0.12026,-0.11874 -0.13743,-0.18207 -0.11145,-0.41202 0.0211,-0.18597 0.0805,-0.32173 0.18853,-0.42977 0.13587,-0.1357 0.20884,-0.15786 0.52144,-0.15786 0.33755,0 0.37652,0.0142 0.54544,0.20355 0.16102,0.18028 0.17832,0.23499 0.15091,0.4776 -0.0207,0.18405 -0.0743,0.3091 -0.16288,0.38091 -0.1151,0.0934 -0.11949,0.11158 -0.0338,0.14465 0.12799,0.049 0.27382,0.33454 0.27382,0.53609 0,0.57763 -0.64305,0.91923 -1.24098,0.65915 z m 0.79376,-0.2994 c 0.31028,-0.31031 0.0863,-0.81266 -0.36269,-0.81266 -0.27759,0 -0.50994,0.21868 -0.50994,0.47993 0,0.26129 0.23235,0.47999 0.50994,0.47999 0.14876,0 0.26102,-0.0456 0.36269,-0.14716 z m -0.0518,-1.18309 c 0.27646,-0.25972 0.0983,-0.70945 -0.2811,-0.70945 -0.37395,0 -0.54928,0.42453 -0.2895,0.70106 0.16374,0.17428 0.39046,0.17763 0.5706,0.008 z m 2.48418,1.49519 c -0.11247,-0.0412 -0.26087,-0.15095 -0.32995,-0.24402 -0.11422,-0.15393 -0.12724,-0.26423 -0.14451,-1.21489 l -0.019,-1.0457 h 0.15393 0.15392 v 0.89096 c 0,0.9944 0.0528,1.23096 0.30347,1.36063 0.35113,0.18158 0.77575,0.0487 0.88988,-0.27891 0.0371,-0.10643 0.0666,-0.58439 0.0666,-1.08172 v -0.89096 h 0.14999 0.14999 v 0.94489 c 0,1.03745 -0.0514,1.24006 -0.37238,1.47548 -0.19897,0.14591 -0.71498,0.18921 -1.00174,0.0844 z m 3.4196,-0.004 c -0.23857,-0.0836 -0.40858,-0.29194 -0.46238,-0.56656 -0.0346,-0.17687 -0.0246,-0.19498 0.10718,-0.19498 0.11184,0 0.16303,0.0488 0.22157,0.21055 0.12896,0.35658 0.55802,0.48702 0.99763,0.30332 0.23329,-0.0976 0.32376,-0.31856 0.22189,-0.54211 -0.0627,-0.13775 -0.25271,-0.2186 -0.9224,-0.39219 -0.46532,-0.12063 -0.64447,-0.37561 -0.56428,-0.80315 0.0788,-0.42053 0.54294,-0.65191 1.09851,-0.54768 0.31162,0.0584 0.42468,0.12927 0.55943,0.35023 0.16323,0.26771 0.15219,0.40113 -0.033,0.40113 -0.0909,0 -0.14999,-0.0342 -0.14999,-0.0867 0,-0.17586 -0.26459,-0.40001 -0.51006,-0.43213 -0.45037,-0.0589 -0.75535,0.18943 -0.66665,0.54289 0.0315,0.12553 0.0999,0.16957 0.38257,0.24581 0.85617,0.23098 0.88047,0.24171 1.02392,0.45281 0.16712,0.24595 0.15423,0.64364 -0.0277,0.84782 -0.24369,0.2736 -0.82377,0.36944 -1.2763,0.21089 z m 3.44097,-0.006 c -0.56214,-0.24484 -0.8094,-1.27632 -0.47488,-1.9813 0.22883,-0.48218 0.82996,-0.69645 1.37263,-0.48921 0.30285,0.1156 0.35657,0.16829 0.48459,0.47471 l 0.0921,0.22039 h -0.17428 c -0.13649,0 -0.18255,-0.033 -0.2124,-0.15173 -0.0581,-0.23164 -0.3713,-0.40013 -0.68437,-0.36825 -0.50124,0.051 -0.77864,0.53117 -0.71464,1.23688 0.0384,0.42508 0.18189,0.68929 0.44066,0.81209 0.41808,0.1984 0.76902,0.0546 0.946,-0.38788 0.0782,-0.19545 0.12614,-0.24109 0.25346,-0.24109 0.14136,0 0.15299,0.0164 0.11573,0.16498 -0.15393,0.61688 -0.8611,0.96468 -1.44464,0.71053 z m 6.20611,-0.0522 c -0.29141,-0.19498 -0.42145,-0.59387 -0.39553,-1.21349 0.0235,-0.56316 0.15627,-0.89175 0.42687,-1.05675 0.37313,-0.22755 0.81966,-0.0781 1.02947,0.34475 0.0892,0.17972 0.1151,0.36055 0.1151,0.802 0,0.44145 -0.0259,0.62227 -0.1151,0.80199 -0.21772,0.43867 -0.67741,0.57798 -1.06081,0.3215 z m 0.6629,-0.22027 c 0.17179,-0.17182 0.26003,-0.57681 0.22945,-1.05308 -0.0312,-0.48586 -0.16674,-0.79268 -0.37304,-0.84444 -0.37128,-0.0932 -0.57729,0.18763 -0.61949,0.84444 -0.045,0.69921 0.15471,1.16991 0.49627,1.16991 0.0824,0 0.20254,-0.0526 0.26681,-0.11673 z m -18.47463,-0.57309 v -0.86991 h -0.26995 c -0.22127,0 -0.26996,-0.0197 -0.26996,-0.10945 0,-0.0764 0.0674,-0.12613 0.22497,-0.16496 0.16834,-0.0416 0.24763,-0.10429 0.31495,-0.24927 0.0506,-0.10881 0.13601,-0.19424 0.19497,-0.19499 0.0967,-7.9e-4 0.10493,0.0967 0.10493,1.22858 v 1.22988 h -0.15001 -0.14998 z m 6.77919,0.68992 c 0,-0.15998 0.02,-0.17998 0.17997,-0.17998 0.16,0 0.17999,0.0201 0.17999,0.17998 0,0.15999 -0.0201,0.17998 -0.17999,0.17998 -0.15998,0 -0.17997,-0.0201 -0.17997,-0.17998 z m 3.29962,0 c 0,-0.15998 0.02,-0.17998 0.17995,-0.17998 0.15999,0 0.18,0.0201 0.18,0.17998 0,0.15999 -0.02,0.17998 -0.18,0.17998 -0.15997,0 -0.17995,-0.0201 -0.17995,-0.17998 z m 3.53957,0 c 0,-0.15998 0.02,-0.17998 0.17997,-0.17998 0.15999,0 0.17997,0.0201 0.17997,0.17998 0,0.15999 -0.0201,0.17998 -0.17997,0.17998 -0.15998,0 -0.17997,-0.0201 -0.17997,-0.17998 z m 2.21972,0.0707 c 0,-0.313 0.4151,-1.29639 0.7833,-1.85573 l 0.12832,-0.19497 h -0.63579 c -0.59583,0 -0.63582,-0.006 -0.63582,-0.11999 0,-0.11398 0.0401,-0.12014 0.80991,-0.12014 0.67226,0 0.80988,0.0142 0.80988,0.0881 0,0.0485 -0.11748,0.27119 -0.26133,0.49495 -0.29094,0.45289 -0.54303,1.04511 -0.64268,1.50984 -0.0572,0.26634 -0.0851,0.30685 -0.21082,0.30685 -0.10019,0 -0.14499,-0.0338 -0.14499,-0.10907 z m 3.83953,0 c 0,-0.313 0.41513,-1.29639 0.78333,-1.85573 l 0.12831,-0.19497 h -0.63583 c -0.59581,0 -0.6358,-0.006 -0.6358,-0.11999 0,-0.11398 0.0399,-0.12014 0.80989,-0.12014 0.67228,0 0.80992,0.0142 0.80992,0.0881 0,0.0485 -0.11749,0.27119 -0.26136,0.49495 -0.29092,0.45289 -0.54299,1.04511 -0.64266,1.50984 -0.0572,0.26634 -0.0851,0.30685 -0.21083,0.30685 -0.10028,0 -0.14497,-0.0338 -0.14497,-0.10907 z m -29.56317,-0.0258 c -0.0338,-0.0412 -0.25,-0.46646 -0.48048,-0.94493 -2.013578,-4.17989 -3.17449,-9.27433 -3.677677,-16.13833 -0.114345,-1.56093 -0.01746,-7.72241 0.173556,-11.00888 0.07139,-1.23286 -0.0433,-1.74362 -0.434163,-1.93003 -0.268121,-0.12784 -0.579365,-0.0652 -0.807201,0.16276 -0.243694,0.24368 -0.638688,1.28486 -0.693247,1.82726 -0.234873,2.33552 -0.776831,5.50633 -1.302241,7.61923 -0.713653,2.86975 -1.881608,5.92456 -2.850502,7.45537 -0.110074,0.17389 -0.200067,0.32979 -0.200067,0.34647 0,0.13601 -1.267925,1.93309 -1.818265,2.57708 -1.034887,1.21104 -2.557389,2.49683 -3.731086,3.151 -1.290065,0.71908 -2.302862,1.15108 -3.053622,1.30254 -0.676948,0.13648 -2.327779,0.13397 -3.095627,-0.005 -1.623149,-0.29343 -3.125005,-1.00711 -4.04492,-1.92212 -0.93861,-0.93363 -2.240274,-2.5672 -4.164328,-5.22626 -1.336118,-1.84653 -1.731186,-2.37411 -2.381108,-3.1797 -0.37264,-0.46226 -0.754238,-0.92196 -0.847888,-1.02187 -0.09361,-0.0999 -0.371183,-0.41036 -0.616585,-0.68992 -1.036911,-1.18111 -2.28002,-2.28 -3.490948,-3.08596 -0.498031,-0.33149 -0.988722,-0.85477 -1.380211,-1.4719 -1.627672,-2.56578 -2.189221,-5.48808 -1.608197,-8.36916 0.944429,-4.68283 4.536202,-8.59777 9.160362,-9.9845 1.989935,-0.59672 5.893129,-0.74512 11.533567,-0.43846 1.504845,0.0818 6.065287,0.0462 7.003684,-0.0547 0.931398,-0.10019 0.985267,-0.12364 1.253111,-0.54503 0.184862,-0.29096 0.191861,-0.68677 0.01608,-0.91023 -0.159996,-0.20341 -0.701263,-0.47795 -1.198576,-0.60794 -0.544648,-0.14245 -1.809232,-0.0967 -2.514894,0.0911 -0.501435,0.1332 -0.54868,0.13492 -2.828851,0.0967 -5.707977,-0.0958 -9.432226,-0.65206 -12.679305,-1.89345 -2.371796,-0.90676 -4.229178,-2.08665 -5.81036,-3.69096 -1.508176,-1.53023 -2.347596,-3.07521 -2.759905,-5.07966 -0.199828,-0.97156 -0.237926,-1.39246 -0.227333,-2.51011 0.0186,-1.96894 0.408162,-3.79127 1.077057,-5.03947 0.936173,-1.74695 2.094127,-2.9869 4.98637,-5.33947 2.546356,-2.07123 3.31923,-2.8243 4.264714,-4.1556 0.76997,-1.08417 2.243065,-3.06583 2.462456,-3.31266 0.08846,-0.0997 0.288954,-0.32944 0.445482,-0.51091 1.850383,-2.14508 3.898871,-3.39657 5.940274,-3.62914 0.197955,-0.0226 0.55186,-0.0931 0.786405,-0.15708 2.648513,-0.72055 5.592627,-0.28483 8.302484,1.22879 0.412461,0.23037 0.938901,0.55786 1.169865,0.72778 0.230965,0.16987 0.514315,0.37412 0.629629,0.45389 0.659231,0.45585 2.179105,1.9701 2.645459,2.63563 0.127074,0.18149 0.307538,0.43794 0.400837,0.56994 0.278109,0.39342 0.775699,1.3075 1.069379,1.96445 1.171334,2.62013 1.715395,6.03214 1.757893,11.02422 0.0142,1.68772 0.121876,5.24629 0.182586,6.04626 0.06104,0.80517 0.116482,0.95023 0.508729,1.32912 0.183773,0.17759 0.261092,0.20906 0.558903,0.22744 0.33392,0.0207 0.35419,0.0126 0.598673,-0.22149 0.139176,-0.1335 0.277812,-0.2899 0.308042,-0.34744 0.0764,-0.14559 0.2193,-1.94981 0.33833,-4.27416 0.29304,-5.72189 0.40742,-7.01519 0.83369,-9.42738 0.57547,-3.25632 1.8095,-6.16356 3.43858,-8.10081 0.52134,-0.61992 1.51538,-1.59696 2.05744,-2.02222 1.6946,-1.32948 3.75216,-2.38589 5.60933,-2.88012 2.97097,-0.79054 6.36836,-0.0169 9.02893,2.05595 1.36128,1.0606 2.69007,2.67329 3.09113,3.75164 0.50392,1.35486 1.2368,2.42514 2.47006,3.60729 0.69217,0.66347 1.76464,1.48518 3.55769,2.72586 1.65752,1.14686 2.90382,2.11041 3.6424,2.81598 0.49688,0.47467 0.64322,0.66103 0.95233,1.21261 0.93249,1.664 1.39502,3.35665 1.4323,5.24132 0.0458,2.32211 -0.44097,4.15214 -1.63601,6.14935 -0.49421,0.82592 -1.46105,2.0207 -2.2109,2.73216 -2.77696,2.63479 -7.02125,4.39733 -11.89895,4.94134 -1.04154,0.11623 -1.66417,0.14624 -3.89953,0.18849 -1.00638,0.019 -1.95127,0.0449 -2.09977,0.0576 -0.1484,0.0126 -0.56692,0.0384 -0.92987,0.0576 -0.68484,0.0357 -0.82122,0.0464 -1.91976,0.15454 -1.58224,0.15567 -3.23649,0.44019 -3.50404,0.60293 -0.29487,0.17933 -0.50858,0.55731 -0.50858,0.89956 0,0.24357 0.0304,0.32628 0.17652,0.48003 0.31259,0.32905 0.58279,0.42482 1.3741,0.48698 1.11882,0.0878 3.00622,-0.008 6.06157,-0.31074 0.62692,-0.0619 1.34233,-0.13131 1.58979,-0.15408 0.24748,-0.0226 0.49045,-0.0487 0.53995,-0.0576 0.0494,-0.008 0.34646,-0.034 0.65991,-0.0559 0.31347,-0.0216 0.63743,-0.0506 0.71991,-0.0641 0.58848,-0.0955 3.0459,-0.20886 4.52947,-0.20876 2.84958,1.6e-4 4.95494,0.31965 6.92447,1.05076 0.74084,0.27502 2.00848,0.90265 2.52439,1.24992 0.88357,0.59472 1.92322,1.54887 2.59076,2.3777 0.37215,0.46208 1.15911,1.6253 1.33676,1.97587 0.27764,0.54785 0.63847,1.59137 0.82087,2.37368 0.15848,0.68006 0.18611,0.9313 0.21537,1.96185 0.0521,1.8373 -0.18685,3.29017 -0.86161,5.23742 -0.83615,2.413 -1.30999,3.07157 -4.48907,6.23936 -1.19213,1.18789 -2.35051,2.38926 -2.57418,2.66973 -0.80792,1.01305 -1.34743,1.93637 -1.71871,2.94158 -0.0918,0.24848 -0.21943,0.54547 -0.28363,0.6599 -0.0642,0.11447 -0.23463,0.42413 -0.37875,0.68808 -0.27936,0.51176 -0.98106,1.52641 -1.43139,2.06982 -1.04203,1.25736 -2.34776,2.32782 -3.68823,3.02364 -1.59696,0.82899 -3.07156,1.16216 -4.83637,1.09274 -1.10358,-0.0436 -1.22969,-0.0592 -2.00973,-0.25235 -1.54894,-0.38341 -3.08331,-1.22188 -4.31693,-2.359 -0.26539,-0.24461 -0.59049,-0.54435 -0.72248,-0.66605 -0.97397,-0.8982 -2.88681,-3.36948 -3.39369,-4.38445 -0.13837,-0.27725 -0.39535,-0.75013 -0.57087,-1.0508 -0.65878,-1.1286 -1.59208,-3.77817 -2.23762,-6.35263 -0.52461,-2.09211 -0.96631,-4.48355 -1.26879,-6.8693 -0.0734,-0.57745 -0.1681,-1.13585 -0.21089,-1.24091 -0.0848,-0.20827 -0.29449,-0.34073 -0.63786,-0.40282 -0.19181,-0.0346 -0.24905,-0.0142 -0.43712,0.15001 -0.26908,0.23624 -0.64785,1.02052 -0.75034,1.55363 -0.075,0.39053 -0.094,1.87771 -0.0273,2.15977 0.0194,0.0823 0.0448,0.70343 0.0562,1.37987 0.0247,1.48146 0.0489,1.79537 0.27409,3.56964 0.43551,3.43218 0.96147,6.03662 1.82949,9.05906 0.58406,2.03363 1.41751,4.36492 2.12339,5.9394 0.10341,0.23097 0.24743,0.55494 0.31971,0.71993 0.24296,0.55465 1.36991,2.75439 1.7058,3.32967 0.33503,0.57383 0.70682,1.17757 1.11757,1.81482 l 0.22238,0.34494 h -3.59407 c -2.8025,0 -3.60758,-0.0163 -3.65545,-0.075 z M 78.122139,212.18973 c 0.04372,-0.0412 0.187276,-0.16628 0.319251,-0.27786 0.131911,-0.11146 0.374976,-0.32758 0.540035,-0.47995 0.165073,-0.1525 0.515999,-0.46482 0.77991,-0.69422 0.263887,-0.22942 0.628283,-0.55354 0.809753,-0.72022 0.181483,-0.1667 0.545942,-0.49448 0.809904,-0.72843 0.263987,-0.23392 0.914925,-0.81423 1.446605,-1.28957 1.458192,-1.30372 3.400403,-3.03076 4.610552,-4.09982 1.09284,-0.96534 1.181363,-1.05145 1.156006,-1.12424 -0.01256,-0.0346 -0.379814,-0.44877 -1.576018,-1.77492 l -0.242147,-0.26844 -0.207781,0.1718 c -0.114221,0.0944 -0.800204,0.69831 -1.524198,1.34178 -1.937059,1.72162 -2.510406,2.21986 -2.554423,2.21986 -0.04084,0 -0.106178,-0.0696 -0.958616,-1.0208 -0.280459,-0.31295 -0.52468,-0.58253 -0.5427,-0.59904 -0.01821,-0.0164 -0.541594,-0.59458 -1.163507,-1.28469 l -1.130748,-1.25469 0.294243,-0.27513 c 0.255481,-0.23894 1.388994,-1.24757 3.346346,-2.97774 0.300389,-0.26557 0.546194,-0.51353 0.546194,-0.55105 0,-0.0725 -0.632681,-0.81598 -1.366452,-1.60533 l -0.445657,-0.4794 -0.263811,0.22029 c -0.14513,0.12126 -0.333587,0.28291 -0.418881,0.35942 -0.08544,0.0765 -0.71815,0.63859 -1.406346,1.24901 -0.688182,0.61043 -1.657767,1.47496 -2.154616,1.92113 -0.496849,0.44618 -1.240847,1.1062 -1.653306,1.46673 -0.412435,0.36048 -0.779886,0.68387 -0.816539,0.71859 -0.160134,0.15172 -0.587068,0.53258 -1.313198,1.17151 -1.295482,1.13988 -2.455508,2.18585 -2.529543,2.2808 -0.05654,0.0724 -0.01696,0.15252 0.208297,0.42001 0.519177,0.61676 1.529123,1.68025 1.595379,1.67998 0.03618,0 0.147003,-0.0748 0.24593,-0.16617 0.09889,-0.0914 0.814403,-0.72894 1.589814,-1.41714 0.775424,-0.6882 1.595846,-1.41661 1.823217,-1.61869 0.594281,-0.52813 0.546884,-0.52025 0.902121,-0.14983 0.609774,0.63566 3.453905,3.80224 3.453905,3.84546 0,0.0238 -0.942255,0.8726 -3.3448,3.01191 -0.700572,0.62381 -0.845048,0.77977 -0.799273,0.86291 0.03079,0.056 0.317578,0.38492 0.637443,0.7314 0.319866,0.34647 0.70492,0.77168 0.855705,0.94491 0.295401,0.33942 0.321662,0.35371 0.44195,0.23997 z m 43.553441,-0.87513 c 0.14341,-0.15958 0.52844,-0.62157 0.85591,-1.02664 0.47625,-0.5891 0.58334,-0.75613 0.53529,-0.83472 -0.033,-0.054 -0.47828,-0.43567 -0.98942,-0.84815 -0.51117,-0.41246 -1.42564,-1.15488 -2.03213,-1.64982 -0.60651,-0.49494 -1.14454,-0.93147 -1.19565,-0.97001 -0.082,-0.062 -0.0757,-0.0931 0.055,-0.26984 0.0813,-0.1097 0.20616,-0.26734 0.27764,-0.34989 0.0713,-0.0824 0.33056,-0.39306 0.57588,-0.69003 0.3543,-0.42898 2.52434,-3.04695 2.60536,-3.14315 0.0113,-0.0126 0.14858,0.0814 0.30626,0.20986 0.37029,0.30161 0.19881,0.16311 2.24908,1.81621 0.98045,0.7905 1.8091,1.45366 1.84145,1.47363 0.0474,0.0292 0.63163,-0.61178 1.25615,-1.37817 0.44591,-0.54721 0.54913,-0.68622 0.54913,-0.73946 0,-0.0336 -0.14701,-0.17752 -0.32671,-0.31985 -0.42088,-0.3334 -3.96669,-3.19792 -4.71626,-3.81009 -0.31543,-0.25759 -0.92288,-0.74986 -1.34983,-1.09397 -0.42698,-0.34407 -0.85939,-0.69504 -0.96089,-0.77988 -0.10152,-0.0851 -0.28991,-0.23533 -0.41862,-0.33432 -0.12864,-0.0992 -0.32916,-0.26152 -0.44536,-0.36116 -0.21128,-0.18118 -0.37999,-0.31835 -1.94844,-1.584 l -0.83721,-0.67559 -0.18265,0.20833 c -0.10039,0.1146 -0.38513,0.45652 -0.63259,0.75983 -0.24748,0.30329 -0.56471,0.68959 -0.70493,0.85846 -0.1401,0.16887 -0.25497,0.32305 -0.25497,0.34261 0,0.0197 0.52961,0.46667 1.17695,0.99349 1.27535,1.03795 1.67831,1.36636 2.56436,2.08992 0.31799,0.25966 0.57817,0.50387 0.57817,0.54273 0,0.0574 -1.49617,1.90148 -2.14896,2.64887 -0.0884,0.1013 -0.42906,0.51297 -0.75697,0.91492 -0.32791,0.40196 -0.62914,0.73083 -0.66941,0.73083 -0.0668,0 -0.53461,-0.36738 -2.39393,-1.88075 -1.30801,-1.06461 -1.95895,-1.56889 -2.02514,-1.56889 -0.0942,0 -1.79169,2.0695 -1.75114,2.13509 0.0182,0.0295 0.84494,0.70848 1.83721,1.50893 0.99229,0.80052 2.42843,1.96621 3.19145,2.59043 0.76301,0.62425 1.69776,1.38492 2.07721,1.69038 1.40872,1.13408 3.00928,2.42945 3.40002,2.75173 0.22156,0.18278 0.43562,0.33231 0.47562,0.33231 0.04,0 0.18999,-0.13051 0.33329,-0.29018 z m -38.11988,-34.61767 0.34036,-0.38106 -0.389553,-0.36888 c -0.361393,-0.34222 -0.900576,-0.83641 -2.425376,-2.2231 -0.955173,-0.86868 -1.28994,-1.19041 -1.28994,-1.23978 0,-0.0494 1.033128,-1.17241 3.610357,-3.92453 l 0.224041,-0.23925 0.197554,0.18385 c 0.108691,0.101 0.521502,0.4773 0.917451,0.83597 0.995344,0.90159 1.90606,1.73138 2.369208,2.15866 0.214756,0.19815 0.46149,0.42254 0.548305,0.49869 l 0.157871,0.1384 0.142153,-0.1387 c 0.553431,-0.54025 1.731917,-1.85305 1.731917,-1.92931 0,-0.0514 -0.03732,-0.11485 -0.08268,-0.14136 -0.08268,-0.0479 -0.950951,-0.83416 -1.746919,-1.58195 -0.230978,-0.21698 -0.878901,-0.80947 -1.439833,-1.31661 -0.560934,-0.50715 -1.31683,-1.1964 -1.679795,-1.53166 -0.820648,-0.75802 -2.051819,-1.88432 -2.751448,-2.51708 -0.291882,-0.26396 -0.590122,-0.53395 -0.662776,-0.59995 -0.0725,-0.0659 -0.385733,-0.34945 -0.695797,-0.62992 -0.310052,-0.28047 -0.733066,-0.66519 -0.940006,-0.85491 -0.206952,-0.18971 -0.399077,-0.34496 -0.426923,-0.34496 -0.0279,0 -0.32097,0.29024 -0.651365,0.64491 -0.330421,0.35472 -0.739487,0.79344 -0.909045,0.97492 -0.169557,0.18147 -0.309071,0.35985 -0.310014,0.39641 -9.39e-4,0.0366 0.220109,0.26603 0.49122,0.50994 1.53582,1.38176 3.559103,3.26646 3.575086,3.33021 0.01004,0.0406 -0.205783,0.3128 -0.479936,0.60466 -0.274165,0.29189 -0.822444,0.88023 -1.218392,1.3075 -0.395962,0.42725 -0.910692,0.98012 -1.143843,1.22862 -0.233163,0.24855 -0.548707,0.58683 -0.70125,0.75183 l -0.277268,0.29999 -0.19866,-0.18408 c -0.382014,-0.35394 -1.765302,-1.62037 -2.35467,-2.15571 -0.326915,-0.29696 -0.744966,-0.67963 -0.928999,-0.85041 -0.464467,-0.43094 -0.687731,-0.6193 -0.73421,-0.61937 -0.02174,-3e-5 -0.112837,0.0877 -0.202428,0.19493 -0.08959,0.10718 -0.490127,0.54188 -0.890235,0.96589 -0.400094,0.42398 -0.735617,0.80583 -0.745631,0.84852 -0.01004,0.0427 0.624437,0.66481 1.409838,1.38247 0.785378,0.71767 1.549492,1.4173 1.697965,1.55473 0.148423,0.13744 0.8909,0.81299 1.649813,1.50122 0.758901,0.68823 1.542694,1.40209 1.741793,1.58632 0.1991,0.18428 0.510257,0.46998 0.691462,0.63497 0.181218,0.16499 0.49083,0.44845 0.687982,0.62995 0.197213,0.18146 0.640898,0.58642 0.986046,0.8999 0.345134,0.31347 0.828865,0.75784 1.074946,0.98749 l 0.447416,0.41757 0.622038,-0.65756 c 0.342144,-0.36163 0.775211,-0.82899 0.962411,-1.03855 z m 33.49102,-0.90731 c 0.41244,-0.37936 1.00639,-0.93299 1.31983,-1.2303 0.52412,-0.49717 1.58133,-1.48779 2.78515,-2.60974 0.26553,-0.24747 0.68565,-0.64086 0.93359,-0.87418 0.24792,-0.23333 1.16603,-1.09727 2.04022,-1.91983 0.87419,-0.82256 1.74868,-1.64628 1.94331,-1.83058 0.26794,-0.25364 0.34084,-0.35737 0.30032,-0.427 -0.0295,-0.0505 -0.46156,-0.51557 -0.96023,-1.03327 l -0.90671,-0.94127 -0.74311,0.71156 c -0.4087,0.39136 -0.94556,0.89777 -1.19302,1.12534 -0.24749,0.22761 -0.63893,0.59532 -0.86992,0.81714 -0.95156,0.91396 -1.26475,1.18883 -1.35653,1.19057 -0.0532,7.8e-4 -0.24217,-0.15802 -0.41995,-0.35344 -0.17782,-0.19543 -0.62021,-0.66135 -0.98317,-1.03539 -1.06309,-1.09561 -2.45832,-2.57361 -2.47643,-2.62332 -0.0163,-0.0445 0.56503,-0.60481 2.83639,-2.73462 0.59392,-0.55692 1.11631,-1.0633 1.16081,-1.12525 0.0888,-0.12338 0.19879,0.0101 -1.18996,-1.44019 -0.30814,-0.32172 -0.60311,-0.58421 -0.6555,-0.58328 -0.0525,7.9e-4 -0.28424,0.18122 -0.51521,0.40071 -0.65888,0.62611 -2.2228,2.10063 -2.84965,2.68667 -0.31347,0.2931 -1.05591,0.99283 -1.64983,1.55498 -0.59391,0.56213 -1.25319,1.18479 -1.46506,1.38371 -0.21188,0.1989 -0.65732,0.61987 -0.98987,0.93547 -0.33257,0.31562 -0.80287,0.75763 -1.04507,0.98224 -0.50265,0.46612 -0.5799,0.5393 -1.29055,1.22237 -0.28535,0.2743 -0.51812,0.51726 -0.51728,0.53993 0.001,0.0468 0.53298,0.61993 1.33192,1.43674 l 0.5434,0.55556 0.18643,-0.14591 c 0.10241,-0.0803 0.33641,-0.28975 0.51963,-0.46555 0.18325,-0.17582 0.74914,-0.71109 1.25756,-1.18957 0.50844,-0.47845 1.20367,-1.13314 1.545,-1.45484 0.34132,-0.32173 0.64121,-0.58496 0.66639,-0.58496 0.0251,0 0.5679,0.54671 1.20598,1.21489 0.63808,0.66817 1.43259,1.49854 1.7656,1.84523 0.33297,0.34672 0.68283,0.71597 0.77748,0.82059 l 0.17204,0.1902 -0.14417,0.13932 c -0.0793,0.0767 -0.53453,0.5038 -1.01165,0.94924 -1.85604,1.73284 -2.93791,2.77061 -2.93791,2.81815 0,0.0494 0.29836,0.37042 1.15837,1.24667 0.7079,0.72128 0.72383,0.73315 0.84642,0.63004 0.0688,-0.0578 0.46242,-0.41549 0.87485,-0.79481 z"
       style="fill:#000000;stroke-width:0.05999332" />
    <text
       transform="scale(0.99999081,1.0000092)"
       id="text4552"
       y="212.45543"
       x="141.6398"
       style="font-style:normal;font-variant:normal;font-weight:normal;font-stretch:normal;font-size:66.2155px;line-height:1.25;font-family:Poppins;-inkscape-font-specification:'Poppins, Normal';font-variant-ligatures:normal;font-variant-caps:normal;font-variant-numeric:normal;font-feature-settings:normal;text-align:start;letter-spacing:0px;word-spacing:0px;writing-mode:lr-tb;text-anchor:start;fill:#000000;fill-opacity:1;stroke:none;stroke-width:4.13847"
       xml:space="preserve"><tspan
         style="font-style:normal;font-variant:normal;font-weight:500;font-stretch:normal;font-family:Poppins;-inkscape-font-specification:'Poppins Medium';letter-spacing:-3.98948px;stroke-width:4.13847"
         y="212.45543"
         x="141.6398"
         id="tspan4550">COMPUTERS</tspan></text>
  </g>
</svg>
